# AST/ASF file generated using VICON BodyLanguage
# -----------------------------------------------
:version 1.10
:name VICON
:units
  mass 1.0
  length 0.45
  angle deg
:documentation
   .ast/.asf automatically generated from VICON data using
   VICON BodyBuilder and BodyLanguage model FoxedUp or BRILLIANT.MOD
:root
   order TX TY TZ RX RY RZ
   axis XYZ
   position 0 0 0  
   orientation 0 0 0 
:bonedata
  begin
     id 1 
     name lhipjoint
     direction 0.528046 -0.759594 0.379717 
     length 2.39752 
     axis 0 0 0  XYZ
  end
  begin
     id 2 
     name lfemur
     direction 0.34202 -0.939693 0  
     length 7.31175  
     axis 0 0 20  XYZ
    dof rx ry rz
    limits (-160.0 20.0)
           (-70.0 70.0)
           (-60.0 70.0)
  end
  begin
     id 3 
     name ltibia
     direction 0.34202 -0.939693 0   
     length 7.52482   
     axis 0 0 20   XYZ
    dof rx
    limits (-10.0 170.0)
  end
  begin
     id 4 
     name lfoot
     direction 0.0675379 -0.185559 0.980309   
     length 2.00961   
     axis -90 7.62852e-016 20   XYZ
    dof rx rz
    limits (-45.0 90.0)
           (-70.0 20.0)
  end
  begin
     id 5 
     name ltoes
     direction 1.5352e-011 -4.22286e-011 1   
     length 1.01383   
     axis -90 7.62852e-016 20   XYZ
    dof rx
    limits (-90.0 20.0)
  end
  begin
     id 6 
     name rhipjoint
     direction -0.510274 -0.769251 0.384544   
     length 2.36742  
     axis 0 0 0  XYZ 
  end
  begin
     id 7 
     name rfemur
     direction -0.34202 -0.939693 0   
     length 7.45325   
     axis 0 0 -20   XYZ
    dof rx ry rz
    limits (-160.0 20.0)
           (-70.0 70.0)
           (-70.0 60.0)
  end
  begin
     id 8 
     name rtibia
     direction -0.34202 -0.939693 0   
     length 7.49587   
     axis 0 0 -20   XYZ
    dof rx
    limits (-10.0 170.0)
 end
 begin
     id 9 
     name rfoot
     direction -0.106475 -0.292536 0.950308   
     length 2.20898  
     axis -90 -7.62852e-016 -20   XYZ
    dof rx rz
    limits (-45.0 90.0)
           (-20.0 70.0)
  end
  begin
     id 10 
     name rtoes
     direction -1.53597e-011 -4.22023e-011 1   
     length 1.10065   
     axis -90 -7.62852e-016 -20   XYZ
    dof rx
    limits (-90.0 20.0)
  end
  begin
     id 11 
     name lowerback
     direction 0.0260024 0.998026 -0.0571652   
     length 2.11214   
     axis 0 0 0   XYZ
    dof rx ry rz
    limits (-20.0 45.0)
           (-30.0 30.0)
           (-30.0 30.0)
  end
  begin
     id 12 
     name upperback
     direction 0.0216202 0.999542 -0.0211766   
     length 2.11689   
     axis 0 0 0   XYZ
    dof rx ry rz
    limits (-20.0 45.0)
           (-30.0 30.0)
           (-30.0 30.0)
  end
  begin
     id 13 
     name thorax
     direction 0.00883312 0.999944 0.00589057   
     length 2.11821   
     axis 0 0 0   XYZ
    dof rx ry rz
    limits (-20.0 45.0)
           (-30.0 30.0)
           (-30.0 30.0)
  end
  begin
     id 14 
     name lowerneck
     direction -0.059386 0.994433 0.0870401   
     length 1.81176   
     axis 0 0 0   XYZ
    dof rx ry rz
    limits (-20.0 45.0)
           (-30.0 30.0)
           (-30.0 30.0)
  end
  begin
     id 15 
     name upperneck
     direction 0.0506457 0.97328 -0.223967   
     length 1.82382   
     axis 0 0 0   XYZ
    dof rx ry rz
    limits (-20.0 45.0)
           (-30.0 30.0)
           (-30.0 30.0)
  end
  begin
     id 16
     name head
     direction 0.0205902 0.996147 -0.0852487  
     length 1.84805  
     axis 0 0 0   XYZ
    dof rx ry rz
    limits (-20.0 45.0)
           (-30.0 30.0)
           (-30.0 30.0)
  end
  begin
     id 17 
     name lclavicle
     direction 0.949493 0.303881 -0.0782325  
     length 3.60584  
     axis 0 0 0   XYZ
    dof ry rz
    limits (-20.0 10.0)
           (0.0 20.0)
  end
  begin
     id 18 
     name lhumerus
     direction 1 -4.48965e-011 1.48782e-027   
     length 4.95681   
     axis 180 -30 -90   XYZ
    dof rx ry rz
    limits (-60.0 90.0)
           (-90.0 90.0)
           (-90.0 90.0)
  end
  begin
     id 19
     name lradius
     direction 1 -4.48952e-011 2.06528e-027   
     length 3.40915   
     axis 180 -30 -90   XYZ
    dof rx
    limits (-10.0 170.0)
  end
  begin
     id 20
     name lwrist
     direction 1 -4.48964e-011 1.28021e-027   
     length 1.70457   
     axis -1.61767e-015 90 90   XYZ
    dof ry
    limits (-180.0 0.0)
 end
  begin
     id 21 
     name lhand
     direction 1 -4.49094e-011 2.54887e-027   
     length 0.616403   
     axis -1.63363e-015 90 90   XYZ
    dof rx rz
    limits (-90.0 90.0)
           (-45.0 45.0)
  end
  begin
     id 22 
     name lfingers
     direction 1 -4.49002e-011 5.11407e-027   
     length 0.49696   
     axis -3.26723e-015 90 90   XYZ
    dof rx
    limits (0.0 90.0)
  end
  begin
     id 23
     name lthumb
     direction 0.707107 -6.34998e-011 0.707107   
     length 0.713539   
     axis -90 45 -2.25915e-014   XYZ
    dof rx rz
    limits (-45.0 45.0)
           (-45.0 45.0)
  end
  begin
     id 24 
     name rclavicle
     direction -0.937751 0.334612 -0.0930482   
     length 3.46287  
     axis 0 0 0   XYZ 
    dof ry rz
    limits (-10.0 20.0)
           (-20.0 0.0)
  end
  begin
     id 25 
     name rhumerus
     direction -1 -4.48962e-011 3.59972e-027  
     length 5.352   
     axis 180 30 90   XYZ
    dof rx ry rz
    limits (-90.0 60.0)
           (-90.0 90.0)
           (-90.0 90.0)
  end
  begin
     id 26 
     name rradius
     direction -1 -4.48987e-011 -3.76925e-027   
     length 3.43721   
     axis 180 30 90   XYZ
    dof rx
    limits (-10.0 170.0)
  end
  begin
     id 27 
     name rwrist
     direction -1 -4.48943e-011 1.28112e-027   
     length 1.7186   
     axis -1.61767e-015 -90 -90   XYZ
    dof ry
    limits (-180.0 0.0)
  end
  begin
     id 28
     name rhand
     direction -1 -4.49027e-011 2.55483e-027   
     length 0.72009   
     axis -1.63363e-015 -90 -90   XYZ
    dof rx rz
    limits (-90.0 90.0)
           (-45.0 45.0)
  end
  begin
     id 29
     name rfingers
     direction -1 -4.48827e-011 5.14506e-027   
     length 0.580555   
     axis -3.26723e-015 -90 -90   XYZ
    dof rx
    limits (0.0 90.0)
  end
  begin
     id 30
     name rthumb
     direction -0.707107 -6.34936e-011 0.707107   
     length 0.833564   
     axis -90 -45 2.25915e-014   XYZ
    dof rx rz
    limits (-45.0 45.0)
           (-45.0 45.0)
  end
:hierarchy
  begin
    root lhipjoint rhipjoint lowerback
    lhipjoint lfemur
    lfemur ltibia
    ltibia lfoot
    lfoot ltoes
    rhipjoint rfemur
    rfemur rtibia
    rtibia rfoot
    rfoot rtoes
    lowerback upperback
    upperback thorax
    thorax lowerneck lclavicle rclavicle
    lowerneck upperneck
    upperneck head
    lclavicle lhumerus
    lhumerus lradius
    lradius lwrist
    lwrist lhand lthumb
    lhand lfingers
    rclavicle rhumerus
    rhumerus rradius
    rradius rwrist
    rwrist rhand rthumb
    rhand rfingers
  end

#!OML:ASF H:\Terrain\Patient Classification 1\Terrain2\Thursday\justin.ASF
:FULLY-SPECIFIED
:DEGREES
930
root 9.70106 17.466 11.4971 92.8787 -87.0795 -98.9237
lowerback 6.2885 0.617125 2.62684
upperback 3.04656 0.887671 2.76766
thorax -0.388136 0.4048 1.31478
lowerneck -12.2306 -0.787333 -10.1384
upperneck 40.5979 -2.24931 4.93522
head 16.9815 -2.49044 3.4718
rclavicle 1.49089e-015 1.51076e-014
rhumerus -40.7283 -15.9581 -71.184
rradius 26.3258
rwrist -2.21048
rhand -18.3222 12.1833
rfingers 7.12502
rthumb 7.95941 -17.6468
lclavicle 1.49089e-015 1.51076e-014
lhumerus -41.5129 11.0236 82.8986
lradius 34.2851
lwrist 8.78692
lhand -19.3135 21.0283
lfingers 7.12502
lthumb 7.00253 50.8925
rfemur -9.72075 -14.6523 5.09635
rtibia 122.933
rfoot -4.25889 9.04358
rtoes -4.31517
lfemur -1.62989 -1.801 -20.8428
ltibia 31.2022
lfoot -14.2897 -5.87096
ltoes 18.3487
931
root 9.65246 17.5232 11.514 89.0036 -87.3389 -94.868
lowerback 6.29348 0.461513 2.49128
upperback 3.03614 0.673497 2.82647
thorax -0.403268 0.295661 1.46512
lowerneck -12.29 -0.716664 -10.4151
upperneck 40.5675 -2.00626 4.85563
head 16.9576 -2.4398 3.52666
rclavicle 6.38596e-015 1.82882e-014
rhumerus -40.402 -14.9316 -71.4758
rradius 26.7623
rwrist -2.40025
rhand -17.5491 12.7514
rfingers 7.12502
rthumb 8.70546 -17.0491
lclavicle 6.38596e-015 1.82882e-014
lhumerus -41.5883 10.1628 83.6683
lradius 35.2272
lwrist 8.97096
lhand -19.8051 21.1918
lfingers 7.12502
lthumb 6.52797 51.0712
rfemur -11.0179 -16.0042 4.21713
rtibia 123.912
rfoot -5.20017 9.74682
rtoes -6.27522
lfemur -0.645586 -2.27374 -21.2523
ltibia 29.2801
lfoot -13.7064 -5.85362
ltoes 19.8974
932
root 9.60139 17.5803 11.5225 84.0208 -87.3948 -89.7835
lowerback 6.31708 0.345418 2.65462
upperback 3.09813 0.523453 2.83569
thorax -0.349472 0.221218 1.39301
lowerneck -12.3815 -0.709858 -10.6666
upperneck 40.4843 -1.93633 4.97584
head 16.9328 -2.42428 3.63842
rclavicle 3.13086e-015 2.78299e-014
rhumerus -40.1307 -14.2419 -71.7417
rradius 27.3608
rwrist -2.98664
rhand -16.5398 13.2644
rfingers 7.12502
rthumb 9.67937 -16.4932
lclavicle 3.13086e-015 2.78299e-014
lhumerus -41.5538 10.1184 83.9677
lradius 35.9742
lwrist 8.17012
lhand -20.417 21.1491
lfingers 7.12502
lthumb 5.93719 51.0459
rfemur -12.193 -17.3007 3.65993
rtibia 124.777
rfoot -5.95674 10.37
rtoes -6.26551
lfemur 0.442228 -2.74077 -21.3936
ltibia 27.3296
lfoot -13.0641 -5.91361
ltoes 21.4773
933
root 9.55935 17.6348 11.5337 80.9804 -87.4114 -86.747
lowerback 6.50585 0.287687 2.95833
upperback 3.21269 0.463126 2.72935
thorax -0.331677 0.193622 1.11694
lowerneck -12.5646 -0.707192 -10.5571
upperneck 40.4129 -1.94809 5.04822
head 16.9387 -2.39094 3.65048
rclavicle 3.23025e-015 2.62396e-014
rhumerus -39.9136 -13.8723 -72.1035
rradius 28.0072
rwrist -3.60708
rhand -16.2576 12.3128
rfingers 7.12502
rthumb 9.95163 -17.432
lclavicle 3.23025e-015 2.62396e-014
lhumerus -41.2929 9.61045 84.2678
lradius 36.5627
lwrist 7.44387
lhand -20.5469 21.2506
lfingers 7.12502
lthumb 5.81181 51.1509
rfemur -13.4665 -18.4249 3.27605
rtibia 125.641
rfoot -7.0937 10.6955
rtoes -7.53807
lfemur 1.62519 -2.98099 -21.4847
ltibia 25.3232
lfoot -12.2509 -5.90065
ltoes 22.2241
934
root 9.51853 17.6887 11.5422 78.0326 -87.7715 -83.7387
lowerback 6.70149 0.228428 2.60454
upperback 3.25134 0.370865 2.69834
thorax -0.403521 0.143592 1.2889
lowerneck -12.6751 -0.662147 -10.4027
upperneck 40.3903 -1.81473 4.83166
head 16.9346 -2.33591 3.54663
rclavicle 7.45443e-016 1.19271e-014
rhumerus -39.7467 -13.1106 -72.4066
rradius 28.6745
rwrist -4.22518
rhand -16.744 11.716
rfingers 7.12502
rthumb 9.4824 -18.0507
lclavicle 7.45443e-016 1.19271e-014
lhumerus -41.1427 9.11554 84.708
lradius 37.0978
lwrist 6.85988
lhand -20.2439 21.0587
lfingers 7.12502
lthumb 6.10439 50.9508
rfemur -14.9337 -19.7298 2.50083
rtibia 126.52
rfoot -8.51702 10.816
rtoes -9.06978
lfemur 2.74182 -3.19451 -21.9579
ltibia 23.2594
lfoot -11.4672 -5.72193
ltoes 21.9551
935
root 9.47528 17.7364 11.5457 74.3427 -88.1127 -80.0293
lowerback 6.94388 0.130753 2.16974
upperback 3.28053 0.222721 2.72085
thorax -0.509879 0.0639184 1.56626
lowerneck -12.6669 -0.596942 -10.2976
upperneck 40.2162 -1.59947 4.52389
head 16.8092 -2.25944 3.419
rclavicle 6.95746e-016 5.56597e-015
rhumerus -39.5301 -12.0862 -72.7355
rradius 29.3452
rwrist -5.14507
rhand -17.5231 11.7887
rfingers 7.12502
rthumb 8.73061 -18.0107
lclavicle 6.95746e-016 5.56597e-015
lhumerus -40.9925 8.71064 85.1109
lradius 37.4561
lwrist 6.42089
lhand -20.1144 20.7572
lfingers 7.12502
lthumb 6.22932 50.6456
rfemur -16.371 -21.124 1.70636
rtibia 127.335
rfoot -9.43206 10.9388
rtoes -5.62865
lfemur 3.94766 -3.19782 -22.3511
ltibia 21.0873
lfoot -10.5639 -5.67776
ltoes 22.8219
